<svg width="30" height="30" viewBox="0 0 30 30" fill="none" xmlns="http://www.w3.org/2000/svg">
<g clip-path="url(#clip0_510_4671)">
<path d="M5.88217 0.0078125C2.65066 0.0078125 0.00585938 2.65255 0.00585938 5.88412V24.1194C0.00585938 27.3509 2.6506 29.9947 5.88217 29.9947H24.1174C27.3489 29.9947 29.9928 27.3509 29.9928 24.1194V5.88412C29.9928 2.65261 27.3489 0.0078125 24.1174 0.0078125H5.88217ZM7.36015 4.95625C8.90959 4.95625 9.86398 5.97343 9.89344 7.3105C9.89344 8.61805 8.90953 9.66382 7.33018 9.66382H7.30111C5.78116 9.66382 4.79875 8.61811 4.79875 7.3105C4.79875 5.97346 5.81089 4.95625 7.36012 4.95625H7.36015ZM20.7126 11.2056C23.6924 11.2056 25.9263 13.1532 25.9263 17.3386V25.1521H21.3977V17.8625C21.3977 16.0307 20.7423 14.781 19.1034 14.781C17.8523 14.781 17.1065 15.6233 16.7791 16.437C16.6595 16.7281 16.6301 17.1347 16.6301 17.542V25.1521H12.1015C12.1015 25.1521 12.1609 12.8037 12.1015 11.5251H16.631V13.4548C17.2328 12.5263 18.3093 11.2055 20.7126 11.2055V11.2056ZM5.06587 11.5261H9.59446V25.1522H5.06587V11.5261V11.5261Z" fill="#0177B5"/>
</g>
<defs>
<clipPath id="clip0_510_4671">
<rect width="30" height="30" fill="white"/>
</clipPath>
</defs>
</svg>
