<svg width="150" height="66" viewBox="0 0 150 66" fill="none" xmlns="http://www.w3.org/2000/svg">
<g filter="url(#filter0_d_184_439)">
<path d="M38.672 49V39.568H20.888L14.048 40.072V39.352L20.888 35.104L37.592 22.216V12.928H1.448V22.432H15.848L23.408 22V22.72L15.848 27.472L0.368 39.784V49H38.672ZM53.7425 9.256V0.759999H42.9425V9.256H53.7425ZM53.7425 49V12.928H42.9425V49H53.7425ZM70.1956 49V30.784C70.1956 24.664 72.6436 21.928 79.4836 21.928C86.1076 21.928 88.4836 24.376 88.4836 30.136V49H99.2836V26.536C99.2836 18.544 94.6036 12.208 84.7396 12.208C75.3076 12.208 70.9876 17.968 70.0516 24.016H69.4036V12.928H59.3956V49H70.1956ZM120.587 45.328C128.651 45.328 132.899 41.656 134.051 36.328H134.627V44.464C134.627 51.52 132.539 52.96 125.627 52.96C118.283 52.96 116.699 51.736 116.699 47.704H105.899C105.899 56.776 113.243 61.96 124.907 61.96C137.795 61.96 145.427 56.344 145.427 43.744V12.928H135.347V21.64H134.771C133.619 15.376 128.363 12.208 121.019 12.208C110.219 12.208 103.667 18.688 103.667 28.768C103.667 38.92 109.859 45.328 120.587 45.328ZM114.539 28.768C114.539 23.44 117.563 21.568 124.475 21.568C131.171 21.568 134.627 23.44 134.627 28.336V29.128C134.627 34.096 131.243 36.04 124.331 36.04C117.563 36.04 114.539 34.096 114.539 28.768Z" fill="white"/>
</g>
<defs>
<filter id="filter0_d_184_439" x="0.368164" y="0.759766" width="149.059" height="65.2002" filterUnits="userSpaceOnUse" color-interpolation-filters="sRGB">
<feFlood flood-opacity="0" result="BackgroundImageFix"/>
<feColorMatrix in="SourceAlpha" type="matrix" values="0 0 0 0 0 0 0 0 0 0 0 0 0 0 0 0 0 0 127 0" result="hardAlpha"/>
<feOffset dx="4" dy="4"/>
<feComposite in2="hardAlpha" operator="out"/>
<feColorMatrix type="matrix" values="0 0 0 0 0.960784 0 0 0 0 0.462745 0 0 0 0 0.356863 0 0 0 1 0"/>
<feBlend mode="normal" in2="BackgroundImageFix" result="effect1_dropShadow_184_439"/>
<feBlend mode="normal" in="SourceGraphic" in2="effect1_dropShadow_184_439" result="shape"/>
</filter>
</defs>
</svg>
