<svg width="1024" height="1024" viewBox="0 0 1024 1024" fill="none" xmlns="http://www.w3.org/2000/svg">
<path d="M863.737 511.509H855.57L774.426 268.089C774.282 267.664 773.981 267.337 773.825 266.919V266.913C773.367 265.894 772.851 264.901 772.276 263.947C769.584 258.635 765.259 254.323 759.935 251.651C759 251.109 758.027 250.619 757.034 250.187C753.734 248.848 750.22 248.136 746.659 248.077H594.915C585.945 222.937 566.005 203.252 540.747 194.608C541.25 192.955 541.59 191.256 541.772 189.538V160.269C541.772 149.809 536.193 140.147 527.138 134.92C518.083 129.693 506.924 129.693 497.868 134.92C488.813 140.147 483.234 149.809 483.234 160.269V189.538C483.417 191.256 483.756 192.955 484.26 194.608C459.001 203.252 439.063 222.937 430.091 248.077H278.347C274.787 248.13 271.272 248.842 267.972 250.174C266.979 250.606 266.006 251.096 265.072 251.638C259.734 254.284 255.396 258.602 252.73 263.927C252.155 264.888 251.639 265.881 251.182 266.9C251.025 267.311 250.718 267.638 250.581 268.069L169.436 511.506H161.269C153.508 511.506 146.06 514.59 140.572 520.078C135.084 525.566 132 533.014 132 540.776V570.045C132 622.332 159.891 670.645 205.173 696.785C250.455 722.925 306.238 722.925 351.52 696.785C396.802 670.645 424.693 622.33 424.693 570.045V540.776C424.693 533.014 421.61 525.566 416.122 520.078C410.634 514.59 403.186 511.506 395.424 511.506H387.257L318.958 306.621H430.089C438.929 331.415 458.437 350.923 483.231 359.763V745.666H395.423C372.144 745.692 349.819 754.95 333.363 771.415C316.899 787.872 307.641 810.197 307.615 833.474C297.155 833.474 287.492 839.053 282.266 848.109C277.039 857.164 277.039 868.323 282.266 877.378C287.492 886.433 297.155 892.013 307.615 892.013H717.385C727.845 892.013 737.508 886.433 742.734 877.378C747.961 868.323 747.961 857.164 742.734 848.109C737.508 839.054 727.845 833.474 717.385 833.474C717.359 810.196 708.101 787.871 691.637 771.415C675.179 754.951 652.854 745.693 629.577 745.666H541.769V359.763C566.563 350.93 586.078 331.415 594.911 306.621H706.042L637.743 511.506H629.576C621.814 511.506 614.366 514.59 608.878 520.078C603.39 525.566 600.307 533.014 600.307 540.776V570.045C600.307 622.332 628.198 670.645 673.48 696.785C718.762 722.925 774.544 722.925 819.827 696.785C865.109 670.645 893 622.33 893 570.045V540.776C893 533.014 889.916 525.566 884.428 520.078C878.94 514.59 871.492 511.506 863.731 511.506L863.737 511.509ZM231.151 511.509L278.349 369.906L325.546 511.509H231.151ZM699.461 511.509L746.658 369.906L793.855 511.509H699.461Z" fill="black"/>
</svg>
